<svg width="80" height="80" viewBox="0 0 80 80" fill="none" xmlns="http://www.w3.org/2000/svg">
<g clip-path="url(#clip0_63_260)">
<path fill-rule="evenodd" clip-rule="evenodd" d="M40 20.8335C33.0965 20.8335 27.5 26.4299 27.5 33.3335C27.5 40.2371 33.0965 45.8335 40 45.8335C46.9036 45.8335 52.5 40.2371 52.5 33.3335C52.5 26.4299 46.9036 20.8335 40 20.8335ZM32.5 33.3335C32.5 29.1914 35.8579 25.8335 40 25.8335C44.1421 25.8335 47.5 29.1914 47.5 33.3335C47.5 37.4756 44.1421 40.8335 40 40.8335C35.8579 40.8335 32.5 37.4756 32.5 33.3335Z" fill="#333333"/>
<path fill-rule="evenodd" clip-rule="evenodd" d="M40 0.833496C23.7222 0.833496 10.8333 14.9761 10.8333 32.0291C10.8333 37.4982 13.5504 43.9383 16.9688 49.9819C20.4426 56.1233 24.8763 62.2542 28.7635 67.2111L28.8931 67.3765C30.7905 69.7963 32.4068 71.8577 33.9742 73.2814C35.6841 74.8347 37.5698 75.8517 40 75.8517C42.4302 75.8517 44.3159 74.8347 46.0259 73.2814C47.5932 71.8577 49.2096 69.7963 51.1069 67.3765L51.2366 67.2111C55.1237 62.2542 59.5574 56.1233 63.0312 49.9819C66.4497 43.9383 69.1667 37.4982 69.1667 32.0291C69.1667 14.9761 56.2778 0.833496 40 0.833496ZM15.8333 32.0291C15.8333 17.3859 26.8226 5.8335 40 5.8335C53.1774 5.8335 64.1667 17.3859 64.1667 32.0291C64.1667 36.1175 62.0346 41.5881 58.6792 47.5203C55.3791 53.3546 51.1141 59.2647 47.3021 64.1257C45.2389 66.7567 43.8804 68.4754 42.6639 69.5804C41.5545 70.5882 40.8139 70.8517 40 70.8517C39.1861 70.8517 38.4455 70.5882 37.3361 69.5804C36.1196 68.4754 34.7612 66.7567 32.698 64.1257C28.886 59.2647 24.6209 53.3546 21.3208 47.5203C17.9654 41.5881 15.8333 36.1175 15.8333 32.0291Z" fill="#333333"/>
</g>
<defs>
<clipPath id="clip0_63_260">
<rect width="80" height="80" fill="white"/>
</clipPath>
</defs>
</svg>
