<svg width="80" height="80" viewBox="0 0 80 80" fill="none" xmlns="http://www.w3.org/2000/svg">
<path fill-rule="evenodd" clip-rule="evenodd" d="M40 27.5C33.0964 27.5 27.5 33.0964 27.5 40C27.5 46.9036 33.0964 52.5 40 52.5C46.9036 52.5 52.5 46.9036 52.5 40C52.5 33.0964 46.9036 27.5 40 27.5ZM32.5 40C32.5 35.8579 35.8579 32.5 40 32.5C44.1421 32.5 47.5 35.8579 47.5 40C47.5 44.1421 44.1421 47.5 40 47.5C35.8579 47.5 32.5 44.1421 32.5 40Z" fill="#333333"/>
<path fill-rule="evenodd" clip-rule="evenodd" d="M54.8784 7.91243C51.0713 7.49995 46.2726 7.49997 40.1508 7.5H39.8492C33.7274 7.49997 28.9287 7.49995 25.1216 7.91243C21.2365 8.33335 18.0885 9.20775 15.4008 11.1605C13.7736 12.3427 12.3427 13.7736 11.1605 15.4008C9.20775 18.0885 8.33335 21.2365 7.91243 25.1216C7.49995 28.9287 7.49997 33.7274 7.5 39.8492V40.1508C7.49997 46.2726 7.49995 51.0713 7.91243 54.8784C8.33335 58.7635 9.20775 61.9115 11.1605 64.5992C12.3427 66.2264 13.7736 67.6573 15.4008 68.8395C18.0885 70.7923 21.2365 71.6666 25.1216 72.0876C28.9286 72.5 33.7272 72.5 39.8488 72.5H40.1509C46.2725 72.5 51.0714 72.5 54.8784 72.0876C58.7635 71.6666 61.9115 70.7923 64.5992 68.8395C66.2264 67.6573 67.6573 66.2264 68.8395 64.5992C70.7923 61.9115 71.6666 58.7635 72.0876 54.8784C72.5 51.0714 72.5 46.2728 72.5 40.1512V39.8491C72.5 33.7275 72.5 28.9286 72.0876 25.1216C71.6666 21.2365 70.7923 18.0885 68.8395 15.4008C67.6573 13.7736 66.2264 12.3427 64.5992 11.1605C61.9115 9.20775 58.7635 8.33335 54.8784 7.91243ZM18.3397 15.2056C20.0331 13.9753 22.2004 13.2582 25.6601 12.8833C29.1666 12.5034 33.6948 12.5 40 12.5C46.3052 12.5 50.8334 12.5034 54.3399 12.8833C57.7996 13.2582 59.9669 13.9753 61.6603 15.2056C62.863 16.0794 63.9206 17.137 64.7944 18.3397C66.0247 20.0331 66.7418 22.2004 67.1167 25.6601C67.4966 29.1666 67.5 33.6948 67.5 40C67.5 46.3052 67.4966 50.8334 67.1167 54.3399C66.7418 57.7996 66.0247 59.9669 64.7944 61.6603C63.9206 62.863 62.863 63.9206 61.6603 64.7944C59.9669 66.0247 57.7996 66.7418 54.3399 67.1167C50.8334 67.4966 46.3052 67.5 40 67.5C33.6948 67.5 29.1666 67.4966 25.6601 67.1167C22.2004 66.7418 20.0331 66.0247 18.3397 64.7944C17.137 63.9206 16.0794 62.863 15.2056 61.6603C13.9753 59.9669 13.2582 57.7996 12.8833 54.3399C12.5034 50.8334 12.5 46.3052 12.5 40C12.5 33.6948 12.5034 29.1666 12.8833 25.6601C13.2582 22.2004 13.9753 20.0331 15.2056 18.3397C16.0794 17.137 17.137 16.0794 18.3397 15.2056Z" fill="#333333"/>
<path d="M53.3333 23.3333C53.3333 25.1743 54.8257 26.6667 56.6667 26.6667C58.5076 26.6667 60 25.1743 60 23.3333C60 21.4924 58.5076 20 56.6667 20C54.8257 20 53.3333 21.4924 53.3333 23.3333Z" fill="#333333"/>
</svg>
