<svg width="76" height="76" viewBox="0 0 76 76" fill="none" xmlns="http://www.w3.org/2000/svg">
<path d="M38 0C58.9866 0 76 17.0134 76 38C76 58.9866 58.9866 76 38 76C17.0134 76 0 58.9866 0 38C1.29994e-07 17.0134 17.0134 1.30002e-07 38 0ZM38 5.38114C19.9849 5.38114 5.38114 19.9849 5.38114 38C5.38114 53.4631 16.1407 66.412 30.5815 69.7706L30.5825 48.3426H22.8674V37.9921H30.5825V29.3667C30.5826 22.4667 35.0333 16.1415 45.7151 16.1415C49.8634 16.1415 53.1239 16.4284 53.1326 16.4291L52.8361 25.9166H46.0116C42.1543 25.9166 41.5605 27.6424 41.5605 30.5174V37.9921H52.8361L52.5395 48.3426H41.5605V70.4238C57.9005 68.6498 70.6189 54.8118 70.6189 38C70.6189 19.9849 56.0151 5.38114 38 5.38114Z" fill="#333333"/>
</svg>
